<?xml version="1.0" encoding="utf-8"?>
<!-- Generator: Adobe Illustrator 20.1.0, SVG Export Plug-In . SVG Version: 6.00 Build 0)  -->
<svg version="1.1" id="Слой_1" xmlns="http://www.w3.org/2000/svg" xmlns:xlink="http://www.w3.org/1999/xlink" x="0px" y="0px"
	 viewBox="0 0 512 512" style="enable-background:new 0 0 512 512;" xml:space="preserve">
<style type="text/css">
	.st0{fill:#FFFFFF;}
</style>
<path id="Twitter_2_" class="st0" d="M512,97.1c-18.8,8.3-39.1,14-60.3,16.5c21.7-13,38.3-33.6,46.2-58.1
	c-20.3,12-42.8,20.8-66.7,25.5c-19.2-20.4-46.5-33.2-76.7-33.2c-58,0-105,47-105,105.1c0,8.2,0.9,16.2,2.7,24
	c-87.3-4.4-164.7-46.2-216.5-109.8c-9.1,15.5-14.2,33.6-14.2,52.8c0,36.5,18.5,68.6,46.7,87.5c-17.2-0.6-33.4-5.3-47.6-13.1
	c0,0.4,0,0.8,0,1.3c0,50.9,36.2,93.4,84.3,103.1c-8.8,2.4-18.1,3.7-27.7,3.7c-6.8,0-13.4-0.7-19.8-1.9c13.4,41.7,52.2,72.1,98.1,73
	c-36,28.2-81.2,45-130.4,45c-8.5,0-16.8-0.5-25.1-1.5c46.5,29.8,101.7,47.2,161,47.2c193.2,0,298.8-160.1,298.8-299
	c0-4.5-0.1-9.1-0.3-13.6C480.1,136.7,497.9,118.2,512,97.1z"/>
</svg>
