<?xml version="1.0" encoding="utf-8"?>
<!-- Generator: Adobe Illustrator 20.1.0, SVG Export Plug-In . SVG Version: 6.00 Build 0)  -->
<svg version="1.1" id="Слой_1" xmlns="http://www.w3.org/2000/svg" xmlns:xlink="http://www.w3.org/1999/xlink" x="0px" y="0px"
	 viewBox="0 0 512 512" style="enable-background:new 0 0 512 512;" xml:space="preserve">
<style type="text/css">
	.st0{fill:#FFFFFF;}
</style>
<g id="Instagram_1_">
	<path class="st0" d="M256,355.6c54.2,0,98.1-43.9,98.1-98.1c0-54.2-43.9-98.1-98.1-98.1c-54.2,0-98.1,43.9-98.1,98.1
		C157.9,311.7,201.8,355.6,256,355.6z M202.3,203.8c14.3-14.3,33.4-22.2,53.7-22.2c20.3,0,39.4,7.9,53.7,22.2
		c14.3,14.4,22.2,33.4,22.2,53.7c0,20.3-7.9,39.4-22.2,53.7c-14.4,14.3-33.4,22.2-53.7,22.2c-20.3,0-39.3-7.9-53.7-22.2
		c-14.3-14.3-22.2-33.4-22.2-53.7C180.1,237.2,188,218.2,202.3,203.8z"/>
	<path class="st0" d="M394.2,0H117.8c-6.3,0-12.4,0.5-18.5,1.4h18.9v118.8H96V2c-7.7,1.4-15.1,3.6-22.2,6.5v111.7H51.6V20.4
		C20.5,41.5,0,77.3,0,117.8v41.6h159.4c24.8-24.3,58.7-39.2,96.1-39.2c37.4,0,71.4,15,96.1,39.2H512v-41.6C512,52.7,459.3,0,394.2,0
		z M451,120.1h-58v-58h58V120.1z"/>
	<path class="st0" d="M392.9,257.5c0,75.9-61.5,137.4-137.4,137.4c-75.9,0-137.4-61.5-137.4-137.4c0-28.1,8.4-54.2,22.9-75.9H0
		v212.7C0,459.3,52.7,512,117.8,512h276.5c65,0,117.7-52.7,117.7-117.7V181.6H370C384.5,203.3,392.9,229.4,392.9,257.5z"/>
</g>
</svg>
