<?xml version="1.0" encoding="utf-8"?>
<!-- Generator: Adobe Illustrator 20.1.0, SVG Export Plug-In . SVG Version: 6.00 Build 0)  -->
<svg version="1.1" id="Слой_1" xmlns="http://www.w3.org/2000/svg" xmlns:xlink="http://www.w3.org/1999/xlink" x="0px" y="0px"
	 viewBox="0 0 512 512" style="enable-background:new 0 0 512 512;" xml:space="preserve">
<style type="text/css">
	.st0{fill:#FFFFFF;}
</style>
<path id="Pinterest_2_" class="st0" d="M268,0C128.7,0,58.4,100.2,58.4,183.8c0,50.6,19.1,95.6,60.1,112.4
	c6.7,2.8,12.7,0.1,14.7-7.4c1.4-5.2,4.6-18.2,6-23.6c2-7.4,1.2-10-4.2-16.4c-11.8-13.9-19.4-32-19.4-57.7
	c0-74.3,55.4-140.9,144.3-140.9c78.7,0,122,48.3,122,112.7c0,84.8-37.4,156.4-92.9,156.4c-30.7,0-53.6-25.4-46.3-56.7
	c8.8-37.3,25.9-77.5,25.9-104.4c0-24.1-12.9-44.2-39.5-44.2c-31.3,0-56.5,32.6-56.5,76.1c0,27.7,9.4,46.6,9.4,46.6
	s-32.1,136.4-37.7,160.2c-11.2,47.6,1.1,114.9,1.1,114.9s45.2-51.5,57.9-97.7c3.6-13.1,20.6-80.8,20.6-80.8
	c10.2,19.5,39.9,36.7,71.6,36.7c94.2,0,158.1-86.2,158.1-201.6C453.6,81.3,379.9,0,268,0z"/>
</svg>
