<?xml version="1.0" encoding="utf-8"?>
<!-- Generator: Adobe Illustrator 20.1.0, SVG Export Plug-In . SVG Version: 6.00 Build 0)  -->
<svg version="1.1" id="Слой_1" xmlns="http://www.w3.org/2000/svg" xmlns:xlink="http://www.w3.org/1999/xlink" x="0px" y="0px"
	 viewBox="0 0 512 512" style="enable-background:new 0 0 512 512;" xml:space="preserve">
<style type="text/css">
	.st0{fill:#FFFFFF;}
</style>
<g id="Google_plus_2_">
	<polygon class="st0" points="444.1,80.1 444.1,12.4 410.2,12.4 410.2,80.1 342.3,80.1 342.3,113.9 410.2,113.9 410.2,181.6 
		444.1,181.6 444.1,113.9 512,113.9 512,80.1 	"/>
	<path class="st0" d="M257.8,290.5c-47.5-34.6-59.1-54.1-13.8-89.1c25.6-19.7,43.5-46,43.5-78.4c0-35.3-14.5-67.4-41.7-83h38.6
		l32.9-34.4c0,0-123.9,0-147.1,0C78.2,5.6,33.2,60.5,33.2,120.9c0,61.7,42.5,110.3,125.4,110.3c-12.9,25.9-7.7,49.8,13.3,66.9
		C30.3,298.1,0,360,0,407.8c0,61.9,71.3,98.6,156.8,98.6c116.9,0,163.3-61.8,163.3-112.5C320.1,352.5,304.6,325.5,257.8,290.5z
		 M88.5,120c-6.9-51.9,19.7-91.7,59.4-90.5c39.6,1.2,73.6,43.8,80.4,95.7c6.8,52-16,85.4-55.6,84.2C133.1,208.2,95.4,171.9,88.5,120
		z M157.2,478.9c-59.1,0-101.7-37.3-101.7-82.1c0-43.9,50.1-81.8,109.1-81.1c65.5,0,104.6,40.7,104.6,83.4
		C269.2,443.9,232.7,478.9,157.2,478.9z"/>
</g>
</svg>
